<svg width="272" height="325" viewBox="0 0 272 325" fill="none" xmlns="http://www.w3.org/2000/svg">
<path d="M68.652 20.4786L90.3011 62.542L110.164 63.7753L139.347 17.5565C140.433 15.4807 139.576 12.6242 137.795 12.382C137.167 12.2953 136.453 12.3137 135.659 12.5087C132.163 13.3724 124.397 18.2815 119.908 16.6538C115.416 15.0288 109.654 3.07588 104.276 0.315212C98.8963 -2.44599 84.7592 15.821 76.7227 15.8627C74.3348 15.8725 72.4768 15.7755 71.0458 15.6324C69.2106 15.4466 67.8587 18.1812 68.6525 20.4781L68.652 20.4786Z" fill="#32526E"/>
<path d="M94.6093 40.9066C94.6093 40.9066 90.5114 29.9647 86.491 24.5491C82.4705 19.1334 80.7507 18.2085 80.7507 18.2085L94.3644 44.1495L94.6093 40.9061V40.9066Z" fill="#263E53"/>
<path d="M101.578 36.6499C101.578 36.6499 103.449 24.2305 102.887 16.3093C102.325 8.3882 101.458 6.11572 101.458 6.11572L99.9336 39.0318L101.578 36.6499Z" fill="#263E53"/>
<path d="M107.707 51.6817C107.707 51.6817 114.48 39.6898 117.006 30.7408C119.531 21.7918 119.534 18.7012 119.534 18.7012L105.094 53.0288L107.707 51.6817Z" fill="#263E53"/>
<path d="M68.72 17.4413C69.1589 16.323 70.0285 15.527 71.0455 15.6321C72.4782 15.7757 74.3345 15.8727 76.7224 15.8613C82.4805 15.8342 91.3644 6.4572 97.9191 2.15121C95.535 0.726178 93.3606 -0.182481 91.5048 0.0310036C85.498 0.726182 86.6006 9.17884 79.1265 12.1416C77.7015 12.7046 74.0555 13.8809 71.0889 14.8167C69.8156 15.2203 68.9643 16.2612 68.72 17.4413Z" fill="#263E53"/>
<path d="M115.143 12.4169C116.828 14.4786 118.436 16.1215 119.907 16.653C124.396 18.2801 132.165 13.3722 135.66 12.5101C136.437 12.3161 137.136 12.2966 137.753 12.3779C136.848 11.2904 135.521 10.4327 133.699 9.85781C130.263 8.77847 124.303 12.8168 119.535 13.0303C118.083 13.0926 116.611 12.8634 115.143 12.4169Z" fill="#263E53"/>
<path d="M78.1461 71.442C81.1863 74.3967 88.3077 77.4218 100.472 65.7923C100.472 65.7923 108.001 59.2653 109.45 52.3303C109.45 52.3303 112.785 53.5457 114.862 53.278C114.862 53.278 115.363 55.732 115.837 56.555C116.319 57.3743 112.703 59.0399 113.088 63.3074C113.476 67.5668 114.579 69.0693 115.273 72.1757C115.964 75.2739 116.523 77.5458 115.922 80.0193C115.328 82.4928 113.678 81.7586 115.526 84.6634C117.374 87.5639 119.075 87.6143 119.692 91.237C120.302 94.8597 121.273 96.5562 120.099 99.6355C118.927 102.711 118.217 102.52 118.608 104.815C118.993 107.106 120.503 107.017 120.926 110.504C121.35 113.987 120.919 117.446 120.263 118.576C119.606 119.702 118.092 126.734 109.119 128.761C100.149 130.792 91.7701 132.271 91.7701 132.271C91.7701 132.271 108.622 136.806 116.473 137.171C124.324 137.528 138.054 138.181 145.136 139.419C151.135 140.468 168.142 145.438 168.658 145.768C173.613 148.941 181.779 154.233 191.649 160.647L212.783 89.6337L205.976 88.1463C205.976 88.1463 179.154 79.27 175.038 76.7114C170.674 71.6636 147.171 33.5692 145.059 31.2355C142.869 28.8124 136.326 25.5858 117.851 24.4907C99.3769 23.3881 97.6723 23.3377 94.0804 24.1141C90.4886 24.8987 86.6291 29.1034 84.8898 35.8325C83.1543 42.5653 82.5176 49.7875 82.5176 49.7875C82.5176 49.7875 82.4477 51.3794 81.0731 54.2642C79.7022 57.1489 75.102 68.4869 78.1461 71.442Z" fill="#AF6320"/>
<path opacity="0.34" d="M91.773 132.271C91.773 132.271 108.625 136.806 116.476 137.171C124.327 137.528 138.057 138.181 145.139 139.419C149.034 140.099 157.568 142.432 163.218 144.075L182.915 80.0734C182.084 79.7591 181.288 79.4562 180.543 79.1609C177.817 85.7307 171.255 99.903 161.602 110.243C154.07 118.311 142.662 121.507 132.011 118.603C128.058 117.527 123.888 116.432 120.96 115.772C120.817 117.05 120.564 118.056 120.265 118.576C119.609 119.702 118.094 126.734 109.121 128.761C100.151 130.792 91.7725 132.271 91.7725 132.271H91.773Z" fill="#C98148"/>
<path d="M187.339 160.414L211.405 84.9287L181.958 75.5405L157.892 151.026L187.339 160.414Z" fill="#E6E7E8"/>
<path d="M181.964 75.5444L169.93 113.289L199.377 122.677L211.411 84.9326L181.964 75.5444Z" fill="white"/>
<path d="M165.283 158.985L272 192.828V98.5171L192.587 73.333L165.283 158.985Z" fill="#263E53"/>
<path d="M178.935 116.157L271.999 145.675V98.5171L192.587 73.333L178.935 116.157Z" fill="#32526E"/>
<path d="M79.4968 60.9373C80.3578 58.2953 81.358 55.9459 81.8852 54.8406C83.2582 51.9542 83.3271 50.3623 83.3271 50.3623C83.3271 50.3623 83.9654 43.1418 85.7025 36.4116C85.8938 35.6714 86.1105 34.9622 86.3511 34.2849C86.3001 34.0952 86.273 33.9934 86.273 33.9934C86.273 33.9934 71.004 31.3335 65.2687 41.4507C59.5621 51.5175 65.7965 61.3172 79.4968 60.9373Z" fill="#AF6320"/>
<path opacity="0.54" d="M78.4981 60.9472C79.3981 58.0706 80.5089 55.4502 81.0735 54.2636C82.4476 51.3772 82.5174 49.7864 82.5174 49.7864C82.5174 49.7864 83.1541 42.5648 84.8918 35.8346C85.0673 35.1595 85.263 34.5087 85.4781 33.8856C85.0186 33.8293 84.3765 33.7664 83.599 33.7263C83.3091 34.5039 82.9525 35.3031 82.8306 36.1846C81.2626 47.5242 77.8398 60.9412 78.4981 60.9477V60.9472Z" fill="#BD6C2C"/>
<path opacity="0.54" d="M64.4678 54.0803C66.7706 58.3224 72.0237 61.1453 79.4956 60.9378C79.8354 59.8975 80.1962 58.9011 80.5403 58.0108C71.6829 57.3026 66.7332 55.2957 64.4678 54.0803Z" fill="#BD6C2C"/>
<path opacity="0.51" d="M72.821 61.4088C75.598 63.3626 79.4922 64.4869 84.3096 64.3542C84.645 63.3252 85.001 62.3402 85.3424 61.4575C83.5169 61.2896 81.5712 61.1184 79.4965 60.9368C79.4965 60.9368 79.4949 60.9368 79.4894 60.9363C78.5792 60.9618 77.7003 60.9417 76.8583 60.8794C76.8566 60.8794 76.855 60.8799 76.855 60.8799C75.7248 60.9244 74.3192 61.0647 72.821 61.4082V61.4088Z" fill="#D4A477"/>
<path d="M79.4968 60.9374C79.4968 60.9374 65.9649 59.3682 62.3189 70.4862C58.6729 81.6042 69.7675 86.9478 80.1844 86.8746C90.6012 86.8015 105.151 87.3818 108.443 86.8231C111.735 86.265 116.463 82.1888 114.259 73.1921C112.056 64.1954 107.744 63.3984 79.4973 60.9379L79.4968 60.9374Z" fill="#AF6320"/>
<path opacity="0.36" d="M78.1459 71.4425C81.1873 74.3982 88.3054 77.4244 100.473 65.7928C100.473 65.7928 107.145 60.0092 109.136 53.5462C109.115 52.4961 109.051 51.5197 108.955 50.6116C107.257 57.3515 100.095 63.5604 100.095 63.5604C87.9272 75.192 80.8096 72.1659 77.7677 69.2101C77.4963 68.9463 77.2855 68.6147 77.1289 68.2294C77.1452 69.6138 77.4388 70.7544 78.1465 71.442L78.1459 71.4425Z" fill="#E3A46E"/>
<path opacity="0.54" d="M78.5551 73.857C81.5965 76.8127 88.7146 79.8388 100.882 68.2072C100.882 68.2072 102.762 66.5779 104.824 64.0822C104.168 63.9121 103.466 63.7522 102.71 63.5989C101.421 64.9692 100.472 65.7922 100.472 65.7922C88.3044 77.4239 81.1868 74.3977 78.145 71.442C77.8914 71.1938 77.6904 70.8877 77.5354 70.5328C77.5381 71.9665 77.8291 73.1504 78.5551 73.857Z" fill="#BD6C2C"/>
<path d="M77.2648 69.6458C80.7982 72.5772 88.6191 65.7993 88.6191 65.7993C90.3779 60.194 91.0562 54.2089 89.6962 52.1808C88.3362 50.1537 82.5163 49.7864 82.5163 49.7864C82.5163 49.7864 82.4475 51.3783 81.0745 54.2647C79.9036 56.7257 76.3871 65.3322 77.2648 69.6458Z" fill="#F6E2CA"/>
<path d="M103.905 129.899C105.579 129.548 107.562 129.458 109.326 128.98C119.12 126.319 121.291 120.502 121.358 115.898C121.511 105.491 118.994 107.105 118.607 104.813C118.251 102.723 119.806 102.485 120.423 99.9746C130.782 105.607 143.935 105.097 144.31 105.081C136.014 104.696 125.74 97.9811 120.766 94.3535C120.771 94.4012 120.774 94.4505 120.776 94.4993C120.337 88.7293 117.071 86.9927 115.528 84.6617C114.047 82.4282 115.328 82.4943 115.925 80.0225C116.522 77.549 115.966 75.2727 115.271 72.1739C114.576 69.073 113.475 67.5672 113.089 63.3041C112.756 59.6136 115.421 57.87 115.83 56.9353C122.85 56.2585 125.577 54.1172 125.658 54.05C121.311 55.5314 116.748 55.6988 115.492 55.7151C115.356 55.3071 115.23 54.8438 115.128 54.432C120.593 49.9055 121.099 44.1176 121.116 43.9312C120.408 47.7853 115.778 51.874 114.015 53.3115C113.019 53.2822 111.896 53.0454 111.014 52.8103C110.009 41.6403 105.181 40.2965 105.063 40.2678C105.16 40.3556 108.945 43.9187 109.133 53.5466C107.893 57.5747 104.838 61.3361 102.709 63.5988C110.749 65.2249 112.903 67.6556 114.258 73.1921C115.802 79.4996 113.943 83.3873 111.556 85.3401C115.615 86.6665 116.903 88.4377 116.903 88.4377C122.582 95.7802 118.641 102.915 115.523 105.57C118.256 107.409 120.039 110.042 119.792 113.799C119.06 124.985 115.459 126.536 103.905 129.899Z" fill="#BD6C2C"/>
<path opacity="0.54" d="M91.7718 132.27C91.7718 132.27 94.6609 133.049 98.6027 133.985C113.221 129.655 118.396 129.14 119.861 119.507C118.942 121.799 116.673 127.052 109.12 128.761C100.151 130.791 91.7712 132.27 91.7712 132.27L91.7718 132.27Z" fill="#DC9964"/>
<path opacity="0.39" d="M80.6108 55.2866C85.1872 55.1809 87.8953 52.7963 89.0749 51.5528C87.0902 50.0757 82.5165 49.7864 82.5165 49.7864C82.5165 49.7864 82.4477 51.3783 81.0747 54.2647C80.9462 54.5356 80.788 54.8807 80.6114 55.2866H80.6108Z" fill="white"/>
<path d="M78.8058 121.089C79.8175 125.316 82.1923 128.027 84.7671 129.768C88.5757 132.343 93.3688 132.997 97.7745 131.686C114.239 126.786 118.944 126.762 119.792 113.799C120.039 110.042 118.256 107.409 115.522 105.57C115.505 105.584 115.487 105.599 115.469 105.614C112.341 108.233 101.57 108.874 86.8267 110.472C84.9113 110.68 83.2023 110.758 81.6781 110.72C79.3471 113.691 77.8787 117.224 78.8053 121.089L78.8058 121.089Z" fill="#AF6320"/>
<path opacity="0.54" d="M80.3711 112.609C82.8484 113.335 86.1217 113.524 90.4618 113.053C104.435 111.54 114.84 110.883 118.551 108.59C117.804 107.399 116.761 106.403 115.522 105.57C115.504 105.584 115.487 105.599 115.469 105.614C112.341 108.233 101.569 108.874 86.8266 110.472C84.9112 110.68 83.2022 110.758 81.678 110.72C81.2018 111.328 80.7618 111.958 80.3706 112.609L80.3711 112.609Z" fill="#BD6C2C"/>
<path opacity="0.54" d="M110.461 127.808C116.911 125.378 119.222 122.51 119.792 113.799C119.928 111.745 119.455 110.026 118.552 108.59C116.984 109.559 114.223 110.236 110.503 110.809C111.46 113.741 113.173 120.793 110.461 127.808Z" fill="#BD6C2C"/>
<path d="M80.184 86.8741C80.184 86.8741 68.353 88.0906 69.0016 97.2384C69.6263 106.055 72.0819 112.07 86.8258 110.472C101.57 108.874 112.342 108.232 115.468 105.614C118.595 102.996 122.616 95.8215 116.902 88.4363C116.902 88.4363 110.346 79.4158 80.1834 86.8741H80.184Z" fill="#AF6320"/>
<path opacity="0.54" d="M74.7674 88.4253C77.8136 89.6109 81.3502 90.1857 84.8125 90.1608C95.2299 90.0871 109.779 90.668 113.071 90.1093C114.218 89.9148 115.54 89.2928 116.681 88.1826C116.165 87.6467 114.684 86.3604 111.555 85.3401C110.539 86.1745 109.427 86.6562 108.442 86.8231C105.15 87.3817 90.601 86.8009 80.1836 86.8746C80.1836 86.8746 77.5053 87.1493 74.7668 88.4248L74.7674 88.4253Z" fill="#BD6C2C"/>
<path opacity="0.54" d="M108.922 107.882C112.049 107.3 114.296 106.596 115.469 105.615C118.595 102.996 122.616 95.8215 116.903 88.4368C116.903 88.4368 116.834 88.3436 116.68 88.1848C115.539 89.2929 114.219 89.9149 113.071 90.1094C112.461 90.2129 111.46 90.2774 110.173 90.3131H110.168C111.886 93.5853 114.529 100.809 109.142 107.59C109.066 107.688 108.992 107.785 108.922 107.882H108.922Z" fill="#BD6C2C"/>
<path opacity="0.54" d="M102.999 87.0661C105.529 87.0536 107.473 86.988 108.443 86.8233C111.735 86.2652 116.462 82.1879 114.259 73.1918C113.038 68.2069 111.17 65.7393 104.943 64.1133C106.945 67.7907 109.453 73.5716 108.564 78.2222C107.882 81.7907 105.314 84.8987 102.999 87.0661Z" fill="#BD6C2C"/>
<path d="M0.00380318 290.289C1.03181e-05 290.375 0 290.464 0 290.549C0 309.443 48.8618 324.757 109.135 324.757C169.409 324.757 218.271 309.443 218.271 290.549C218.271 290.464 218.271 290.374 218.267 290.289C218.271 290.235 218.271 290.177 218.271 290.122C218.271 288.131 217.75 286.092 216.648 284.143C203.388 260.85 195.847 235.696 194.422 210.093L193.731 197.73C192.027 166.988 168.638 139.885 133.863 127.863C132.428 127.366 125.95 125.168 121.109 119.326C120.543 118.643 120.037 117.8 119.479 116.893C118.038 126.806 112.808 127.213 97.7741 131.686C93.3673 132.995 88.5758 132.343 84.7667 129.768C83.7416 129.077 82.7516 128.231 81.8662 127.194C81.8505 127.175 81.8354 127.159 81.8196 127.144C81.319 128.11 80.8297 128.817 80.4645 129.283C80.0993 129.746 79.8588 129.97 79.8588 129.97C47.5495 142.726 26.1513 168.803 24.5165 198.161L23.8566 210.093C23.1381 222.899 20.8938 235.584 17.1741 247.986C13.4544 260.387 8.25544 272.502 1.63094 284.143C0.528297 286.092 0 288.131 0 290.122C0 290.177 1.03181e-05 290.235 0.00380318 290.289Z" fill="#32526E"/>
<path d="M218.266 290.29C218.272 290.377 218.272 290.464 218.272 290.551C218.272 309.444 169.409 324.757 109.135 324.757C52.3879 324.757 5.75734 311.184 0.496094 293.829L1.40638 294.192C22.1859 302.536 51.8082 307.326 82.6767 307.326C151.786 307.326 177.243 264.503 171.506 196.65C170.41 183.678 172.504 157.648 149.984 134.94C175.716 148.86 192.307 172.024 193.732 197.728L194.425 210.093C195.85 235.695 203.387 260.852 216.646 284.141C217.751 286.091 218.272 288.129 218.272 290.123C218.272 290.177 218.272 290.236 218.266 290.29Z" fill="#263E53"/>
<path d="M103.444 275.672C93.4035 275.672 82.9184 273.315 78.7051 270.625V256.695C86.4236 260.391 94.9787 262.045 103.444 262.045V233.175C100.335 232.502 97.2923 231.661 94.3154 230.651C84.4128 227.293 78.5469 219.659 78.5469 206.828C78.5469 195.866 83.5833 186.653 93.4062 181.894C96.4622 180.414 99.8086 179.438 103.444 178.966V168.468H113.877V178.664C121.349 179.129 129.02 180.501 135.85 183.408V197.44C126.347 193.78 120.094 192.684 113.877 192.292V220.859C129.606 224.542 139.723 229.963 139.723 247.206C139.723 262.798 129.452 272.213 113.877 274.865V285.767H103.444V275.673V275.672ZM90.956 206.222C90.956 213.882 95.6294 216.993 103.444 218.841V192.696C95.119 194.042 90.956 198.551 90.956 206.222ZM127.314 247.307C127.314 242.089 125.212 237.59 113.878 234.992V261.137C121.895 259.381 127.314 255.483 127.314 247.307Z" fill="white"/>
<path d="M64.2838 151.754C69.7341 144.311 76.4513 137.77 83.3776 131.726C82.4402 130.921 81.5614 129.965 80.8093 128.817C81.1122 128.386 81.4617 127.831 81.8187 127.143C81.8344 127.159 81.8496 127.174 81.8653 127.194C82.7507 128.23 83.7406 129.077 84.7658 129.768C88.5749 132.342 93.3664 132.995 97.7732 131.686C112.808 127.213 118.038 126.805 119.478 116.892C119.571 117.044 119.664 117.191 119.754 117.335V117.339C120.178 118.025 120.584 118.667 121.018 119.212C120.711 120.773 120.346 122.139 120.109 122.964C124.701 126.614 129.382 130.606 133.351 134.843C141.238 143.266 148.292 152.81 152.793 163.49C153.482 165.126 154.016 166.883 154.809 168.467C148.97 156.788 139.631 146.594 129.659 138.313C128.442 137.302 116.638 128.34 115.491 128.149C113.098 130.098 109.514 131.28 104.24 132.821L101.61 167.113L97.2362 134.85C94.7269 135.501 92.1147 135.525 89.6423 134.928C86.1567 137.417 82.0078 141.091 78.7118 143.538C68.1579 151.372 57.947 160.874 53.5494 173.617C53.5077 173.732 53.4714 173.847 53.4395 173.964C55.7943 165.904 59.3102 158.546 64.2843 151.753L64.2838 151.754Z" fill="#263E53"/>
</svg>
