<svg width="16" height="16" viewBox="0 0 16 16" fill="none" xmlns="http://www.w3.org/2000/svg">
<path d="M13.5 11.071V4.929C13.8412 4.84157 14.1532 4.6654 14.4043 4.41839C14.6554 4.17139 14.8367 3.86233 14.9297 3.52262C15.0227 3.1829 15.0242 2.82462 14.934 2.48415C14.8437 2.14368 14.665 1.83315 14.4159 1.58409C14.1669 1.33503 13.8564 1.15631 13.5159 1.06608C13.1754 0.975849 12.8171 0.977319 12.4774 1.07034C12.1377 1.16336 11.8286 1.34462 11.5816 1.59572C11.3346 1.84681 11.1585 2.1588 11.071 2.5H4.92904C4.8416 2.1588 4.66544 1.84681 4.41843 1.59572C4.17143 1.34462 3.86237 1.16336 3.52266 1.07034C3.18294 0.977319 2.82465 0.975849 2.48419 1.06608C2.14372 1.15631 1.83319 1.33503 1.58413 1.58409C1.33507 1.83315 1.15635 2.14368 1.06612 2.48415C0.975887 2.82462 0.977357 3.1829 1.07038 3.52262C1.1634 3.86233 1.34466 4.17139 1.59576 4.41839C1.84685 4.6654 2.15884 4.84157 2.50004 4.929V11.071C2.15884 11.1584 1.84685 11.3346 1.59576 11.5816C1.34466 11.8286 1.1634 12.1377 1.07038 12.4774C0.977357 12.8171 0.975887 13.1754 1.06612 13.5159C1.15635 13.8563 1.33507 14.1669 1.58413 14.4159C1.83319 14.665 2.14372 14.8437 2.48419 14.9339C2.82465 15.0241 3.18294 15.0227 3.52266 14.9297C3.86237 14.8366 4.17143 14.6554 4.41843 14.4043C4.66544 14.1532 4.8416 13.8412 4.92904 13.5H11.071C11.1585 13.8412 11.3346 14.1532 11.5816 14.4043C11.8286 14.6554 12.1377 14.8366 12.4774 14.9297C12.8171 15.0227 13.1754 15.0241 13.5159 14.9339C13.8564 14.8437 14.1669 14.665 14.4159 14.4159C14.665 14.1669 14.8437 13.8563 14.934 13.5159C15.0242 13.1754 15.0227 12.8171 14.9297 12.4774C14.8367 12.1377 14.6554 11.8286 14.4043 11.5816C14.1532 11.3346 13.8412 11.1584 13.5 11.071ZM13 2C13.1978 2 13.3912 2.05865 13.5556 2.16853C13.7201 2.27841 13.8482 2.43459 13.9239 2.61732C13.9996 2.80004 14.0194 3.00111 13.9808 3.19509C13.9422 3.38907 13.847 3.56725 13.7071 3.70711C13.5673 3.84696 13.3891 3.9422 13.1951 3.98078C13.0011 4.01937 12.8001 3.99957 12.6174 3.92388C12.4346 3.84819 12.2784 3.72002 12.1686 3.55557C12.0587 3.39112 12 3.19778 12 3C12 2.73478 12.1054 2.48043 12.2929 2.29289C12.4805 2.10536 12.7348 2 13 2ZM2.00004 3C2.00004 2.80222 2.05869 2.60888 2.16857 2.44443C2.27845 2.27998 2.43463 2.15181 2.61735 2.07612C2.80008 2.00043 3.00115 1.98063 3.19513 2.01921C3.38911 2.0578 3.56729 2.15304 3.70714 2.29289C3.847 2.43274 3.94224 2.61093 3.98082 2.80491C4.01941 2.99889 3.9996 3.19996 3.92392 3.38268C3.84823 3.56541 3.72006 3.72159 3.55561 3.83147C3.39116 3.94135 3.19782 4 3.00004 4C2.73482 4 2.48047 3.89464 2.29293 3.70711C2.10539 3.51957 2.00004 3.26522 2.00004 3ZM3.00004 14C2.80226 14 2.60892 13.9413 2.44447 13.8315C2.28002 13.7216 2.15185 13.5654 2.07616 13.3827C2.00047 13.2 1.98067 12.9989 2.01925 12.8049C2.05784 12.6109 2.15308 12.4327 2.29293 12.2929C2.43278 12.153 2.61097 12.0578 2.80495 12.0192C2.99893 11.9806 3.19999 12.0004 3.38272 12.0761C3.56545 12.1518 3.72163 12.28 3.83151 12.4444C3.94139 12.6089 4.00004 12.8022 4.00004 13C4.00004 13.2652 3.89468 13.5196 3.70714 13.7071C3.51961 13.8946 3.26525 14 3.00004 14ZM11.071 12.5H4.92904C4.83919 12.1564 4.65945 11.8429 4.4083 11.5917C4.15716 11.3406 3.84366 11.1608 3.50004 11.071V4.929C3.84366 4.83915 4.15716 4.65941 4.4083 4.40827C4.65945 4.15712 4.83919 3.84362 4.92904 3.5H11.071C11.1609 3.84362 11.3406 4.15712 11.5918 4.40827C11.8429 4.65941 12.1564 4.83915 12.5 4.929V11.071C12.1562 11.1604 11.8424 11.3399 11.5912 11.5912C11.34 11.8424 11.1604 12.1561 11.071 12.5ZM13 14C12.8023 14 12.6089 13.9413 12.4445 13.8315C12.28 13.7216 12.1518 13.5654 12.0762 13.3827C12.0005 13.2 11.9807 12.9989 12.0193 12.8049C12.0578 12.6109 12.1531 12.4327 12.2929 12.2929C12.4328 12.153 12.611 12.0578 12.8049 12.0192C12.9989 11.9806 13.2 12.0004 13.3827 12.0761C13.5654 12.1518 13.7216 12.28 13.8315 12.4444C13.9414 12.6089 14 12.8022 14 13C13.9996 13.2651 13.8942 13.5192 13.7067 13.7067C13.5193 13.8941 13.2651 13.9996 13 14Z" fill="#666666"/>
</svg>
