<svg width="16" height="16" viewBox="0 0 16 16" fill="none" xmlns="http://www.w3.org/2000/svg">
<path d="M14 8.66667V10.6667C14 11.3739 13.719 12.0522 13.219 12.5523C12.7189 13.0524 12.0406 13.3333 11.3333 13.3333H4.66667C3.95942 13.3333 3.28115 13.0524 2.78105 12.5523C2.28095 12.0522 2 11.3739 2 10.6667V9.06667C2 8.96058 2.04214 8.85884 2.11716 8.78382C2.19217 8.70881 2.29391 8.66667 2.4 8.66667H14ZM14 8.66667V4.66667C14 3.95942 13.719 3.28115 13.219 2.78105C12.7189 2.28095 12.0406 2 11.3333 2H8M10.6667 13.3333L11.3333 14.6667M5.33333 13.3333L4.66667 14.6667" stroke="#666666" stroke-linecap="round" stroke-linejoin="round"/>
<path d="M10.2668 5.33333H5.73343C5.51276 5.33333 5.3361 5.15467 5.3601 4.93467C5.45743 4.05 5.90876 2 8.0001 2C10.0914 2 10.5428 4.05 10.6401 4.93467C10.6641 5.15467 10.4874 5.33333 10.2668 5.33333Z" stroke="#666666" stroke-linecap="round" stroke-linejoin="round"/>
</svg>
