<svg width="16" height="16" viewBox="0 0 16 16" fill="none" xmlns="http://www.w3.org/2000/svg">
<path d="M14.3333 11.3332V9.33317M14.3333 9.33317H1M14.3333 9.33317H7.66667V5.99984H12.3333C12.8638 5.99984 13.3725 6.21055 13.7475 6.58562C14.1226 6.9607 14.3333 7.4694 14.3333 7.99984V9.33317ZM1 5.33317V11.3332M3 5.99984C3 6.35346 3.14048 6.6926 3.39052 6.94265C3.64057 7.19269 3.97971 7.33317 4.33333 7.33317C4.68696 7.33317 5.02609 7.19269 5.27614 6.94265C5.52619 6.6926 5.66667 6.35346 5.66667 5.99984C5.66667 5.64622 5.52619 5.30708 5.27614 5.05703C5.02609 4.80698 4.68696 4.6665 4.33333 4.6665C3.97971 4.6665 3.64057 4.80698 3.39052 5.05703C3.14048 5.30708 3 5.64622 3 5.99984Z" stroke="#666666" stroke-linecap="round" stroke-linejoin="round"/>
</svg>
