<svg width="24" height="24" viewBox="0 0 17 16" fill="none" xmlns="http://www.w3.org/2000/svg">
<path fill-rule="evenodd" clip-rule="evenodd" d="M14.528 3.64331C14.653 3.76833 14.7232 3.93787 14.7232 4.11464C14.7232 4.29142 14.653 4.46096 14.528 4.58598L7.03336 12.0813C6.96526 12.1494 6.88441 12.2035 6.79541 12.2404C6.70642 12.2772 6.61103 12.2962 6.5147 12.2962C6.41837 12.2962 6.32298 12.2772 6.23398 12.2404C6.14499 12.2035 6.06413 12.1494 5.99603 12.0813L2.27203 8.35731C2.21009 8.29537 2.16096 8.22184 2.12744 8.14091C2.09391 8.05998 2.07666 7.97324 2.07666 7.88564C2.07666 7.79805 2.09391 7.71131 2.12744 7.63038C2.16096 7.54945 2.21009 7.47592 2.27203 7.41398C2.33397 7.35204 2.4075 7.3029 2.48843 7.26938C2.56936 7.23586 2.6561 7.21861 2.7437 7.21861C2.83129 7.21861 2.91803 7.23586 2.99896 7.26938C3.07989 7.3029 3.15342 7.35204 3.21536 7.41398L6.51536 10.714L13.5847 3.64331C13.7097 3.51833 13.8793 3.44812 14.056 3.44812C14.2328 3.44812 14.403 3.51833 14.528 3.64331Z" fill="#22C55E"/>
</svg>
