<svg width="24" height="24" viewBox="0 0 24 24" fill="none" xmlns="http://www.w3.org/2000/svg">
<path d="M8.73 21.4991C10.023 19.2761 12.982 19.0141 14.667 20.7131C15.044 21.0931 15.233 21.2831 15.4 21.3051C15.567 21.3271 16.615 20.7271 16.987 20.5131C17.367 20.2961 18.419 19.6931 18.485 19.5341C18.551 19.3771 18.482 19.1071 18.343 18.5691C17.84 16.6121 19.061 14.5521 21.011 14.0211C21.533 13.8791 21.794 13.8081 21.897 13.6721C22 13.5361 22 12.3411 22 11.9041C22 11.4671 22 10.2711 21.897 10.1351C21.794 9.99911 21.533 9.92811 21.011 9.78611C19.061 9.25511 17.839 7.19611 18.341 5.23811C18.481 4.70011 18.549 4.43111 18.483 4.27311C18.417 4.11511 17.365 3.51211 16.986 3.29411C16.614 3.08111 15.566 2.47911 15.398 2.50211C15.231 2.52511 15.043 2.71511 14.666 3.09411C13.9583 3.80033 12.9993 4.19695 11.9995 4.19695C10.9997 4.19695 10.0407 3.80033 9.333 3.09411C8.956 2.71411 8.767 2.52411 8.6 2.50211C8.433 2.48011 7.385 3.08111 7.013 3.29411C6.633 3.51211 5.581 4.11511 5.515 4.27311C5.449 4.43111 5.518 4.70011 5.657 5.23811C6.16 7.19511 4.939 9.25511 2.989 9.78611C2.467 9.92811 2.206 9.99911 2.103 10.1361C2 10.2701 2 11.4651 2 11.9031C2 12.3411 2 13.5351 2.103 13.6711C2.206 13.8071 2.467 13.8781 2.989 14.0211C2.995 14.0211 3.001 14.0224 3.007 14.0251" stroke="currentColor" stroke-width="1.5" stroke-linecap="round"/>
<path d="M2.48891 18.183C3.56891 17.103 7.24091 13.469 7.60091 13.049C7.98091 12.605 7.67291 12.005 7.85691 10.146C7.94491 9.24603 8.13891 8.57303 8.69291 8.07103C9.35291 7.44703 9.89291 7.44703 11.7529 7.40503C13.3729 7.44703 13.5649 7.26703 13.7329 7.68703C13.8529 7.98703 13.4929 8.16703 13.0609 8.64703C12.1009 9.60703 11.5369 10.087 11.4829 10.387C11.0929 11.706 12.6289 12.485 13.4689 11.645C13.7869 11.328 15.2569 9.84603 15.4009 9.72603C15.5089 9.63003 15.7669 9.63503 15.8929 9.78603C16.0009 9.89203 16.0129 9.90603 16.0009 10.386C15.9899 10.83 15.9949 11.468 15.9959 12.126C15.9979 12.977 15.9529 13.925 15.5929 14.404C14.8729 15.484 13.6729 15.544 12.5929 15.592C11.5729 15.652 10.7329 15.544 10.4689 15.736C10.2529 15.844 9.11291 17.043 7.73291 18.423L5.27291 20.882C3.23291 22.502 0.98891 19.982 2.48891 18.182V18.183Z" stroke="currentColor" stroke-width="1.5" stroke-linecap="round"/>
</svg>
