<svg width="18" height="18" viewBox="0 0 18 18" fill="none" xmlns="http://www.w3.org/2000/svg">
<path d="M15 14.25V2.25H3V14.25H1.5V15.75H16.5V14.25H15ZM13.5 3.75V8.25H4.5V3.75H13.5ZM4.5 14.25V9.75H8.25V11.115C8.02072 11.2743 7.84833 11.5026 7.758 11.7668C7.66767 12.0309 7.66411 12.317 7.74786 12.5833C7.8316 12.8496 7.99826 13.0822 8.22352 13.2471C8.44877 13.412 8.72083 13.5006 9 13.5C9.27917 13.5006 9.55123 13.412 9.77648 13.2471C10.0017 13.0822 10.1684 12.8496 10.2521 12.5833C10.3359 12.317 10.3323 12.0309 10.242 11.7668C10.1517 11.5026 9.97928 11.2743 9.75 11.115V9.75H13.5V14.25H4.5Z" fill="black"/>
</svg>
