<svg width="24" height="24" viewBox="0 0 24 24" fill="none" xmlns="http://www.w3.org/2000/svg">
<path d="M16 17H8M3 11.99V14.5C3 17.8 3 19.45 4.025 20.475C5.05 21.5 6.7 21.5 10 21.5H14C17.3 21.5 18.95 21.5 19.975 20.475C21 19.45 21 17.8 21 14.5V11.99C21 10.308 21 9.468 20.644 8.74C20.288 8.012 19.624 7.496 18.298 6.464L16.298 4.909C14.233 3.303 13.2 2.5 12 2.5C10.8 2.5 9.767 3.303 7.702 4.909L5.702 6.464C4.375 7.496 3.712 8.012 3.356 8.74C3 9.468 3 10.308 3 11.99Z" stroke="currentColor" stroke-width="1.5" stroke-linecap="round" stroke-linejoin="round"/>
</svg>
