<svg width="24" height="24" viewBox="0 0 25 24" fill="none" xmlns="http://www.w3.org/2000/svg">
<path d="M19.625 5.5L19.005 15.525C18.847 18.086 18.768 19.367 18.125 20.288C17.8076 20.7432 17.3989 21.1273 16.925 21.416C15.968 22 14.685 22 12.119 22C9.549 22 8.264 22 7.305 21.415C6.83089 21.1257 6.42221 20.7409 6.105 20.285C5.463 19.363 5.385 18.08 5.231 15.515L4.625 5.5M3.125 5.5H21.125M16.181 5.5L15.498 4.092C15.045 3.156 14.818 2.689 14.427 2.397C14.3401 2.33232 14.2482 2.27479 14.152 2.225C13.719 2 13.199 2 12.16 2C11.094 2 10.561 2 10.12 2.234C10.0225 2.28621 9.92953 2.34642 9.842 2.414C9.447 2.717 9.226 3.202 8.784 4.171L8.178 5.5" stroke="#E35858" stroke-width="1.5" stroke-linecap="round"/>
</svg>
