<svg width="48" height="48" viewBox="0 0 48 48" fill="none" xmlns="http://www.w3.org/2000/svg">
<path d="M21 8.99976H27C27 8.20411 26.6839 7.44104 26.1213 6.87844C25.5587 6.31583 24.7956 5.99976 24 5.99976C23.2044 5.99976 22.4413 6.31583 21.8787 6.87844C21.3161 7.44104 21 8.20411 21 8.99976ZM18 8.99976C18 7.40846 18.6321 5.88233 19.7574 4.75712C20.8826 3.6319 22.4087 2.99976 24 2.99976C25.5913 2.99976 27.1174 3.6319 28.2426 4.75712C29.3679 5.88233 30 7.40846 30 8.99976H42C42.3978 8.99976 42.7794 9.15779 43.0607 9.4391C43.342 9.7204 43.5 10.1019 43.5 10.4998C43.5 10.8976 43.342 11.2791 43.0607 11.5604C42.7794 11.8417 42.3978 11.9998 42 11.9998H40.308L36.693 38.5138C36.4478 40.3106 35.5599 41.9577 34.1937 43.1502C32.8275 44.3426 31.0754 44.9997 29.262 44.9998H18.738C16.9246 44.9997 15.1725 44.3426 13.8063 43.1502C12.4401 41.9577 11.5522 40.3106 11.307 38.5138L7.692 11.9998H6C5.60218 11.9998 5.22064 11.8417 4.93934 11.5604C4.65804 11.2791 4.5 10.8976 4.5 10.4998C4.5 10.1019 4.65804 9.7204 4.93934 9.4391C5.22064 9.15779 5.60218 8.99976 6 8.99976H18ZM21 19.4998C21 19.1019 20.842 18.7204 20.5607 18.4391C20.2794 18.1578 19.8978 17.9998 19.5 17.9998C19.1022 17.9998 18.7206 18.1578 18.4393 18.4391C18.158 18.7204 18 19.1019 18 19.4998V34.4998C18 34.8976 18.158 35.2791 18.4393 35.5604C18.7206 35.8417 19.1022 35.9998 19.5 35.9998C19.8978 35.9998 20.2794 35.8417 20.5607 35.5604C20.842 35.2791 21 34.8976 21 34.4998V19.4998ZM28.5 17.9998C28.8978 17.9998 29.2794 18.1578 29.5607 18.4391C29.842 18.7204 30 19.1019 30 19.4998V34.4998C30 34.8976 29.842 35.2791 29.5607 35.5604C29.2794 35.8417 28.8978 35.9998 28.5 35.9998C28.1022 35.9998 27.7206 35.8417 27.4393 35.5604C27.158 35.2791 27 34.8976 27 34.4998V19.4998C27 19.1019 27.158 18.7204 27.4393 18.4391C27.7206 18.1578 28.1022 17.9998 28.5 17.9998ZM14.28 38.1088C14.4272 39.1866 14.9599 40.1747 15.7795 40.89C16.5991 41.6054 17.6501 41.9996 18.738 41.9998H29.262C30.3504 42.0003 31.4021 41.6064 32.2223 40.891C33.0426 40.1756 33.5757 39.1871 33.723 38.1088L37.281 11.9998H10.719L14.28 38.1088Z" fill="#EF4444"/>
</svg>
