<svg width="18" height="18" viewBox="0 0 18 18" fill="none" xmlns="http://www.w3.org/2000/svg">
<g clip-path="url(#clip0_459_1853)">
<path d="M16.6875 0.5625H1.3125C1.11359 0.5625 0.922822 0.641518 0.78217 0.78217C0.641518 0.922822 0.5625 1.11359 0.5625 1.3125V16.6875C0.5625 16.8864 0.641518 17.0772 0.78217 17.2178C0.922822 17.3585 1.11359 17.4375 1.3125 17.4375H16.6875C16.8864 17.4375 17.0772 17.3585 17.2178 17.2178C17.3585 17.0772 17.4375 16.8864 17.4375 16.6875V1.3125C17.4375 1.11359 17.3585 0.922822 17.2178 0.78217C17.0772 0.641518 16.8864 0.5625 16.6875 0.5625Z" stroke="black" stroke-width="1.125" stroke-linecap="round" stroke-linejoin="round"/>
<path d="M3.375 17.4375V7.875C3.375 7.72582 3.43426 7.58274 3.53975 7.47725C3.64524 7.37176 3.78832 7.3125 3.9375 7.3125H11.8125C11.9617 7.3125 12.1048 7.37176 12.2102 7.47725C12.3157 7.58274 12.375 7.72582 12.375 7.875V17.4375M7.875 7.3125V17.4375" stroke="black" stroke-width="1.125" stroke-linecap="round" stroke-linejoin="round"/>
<path d="M14.9062 10.6875C14.8317 10.6875 14.7601 10.6579 14.7074 10.6051C14.6546 10.5524 14.625 10.4808 14.625 10.4062C14.625 10.3317 14.6546 10.2601 14.7074 10.2074C14.7601 10.1546 14.8317 10.125 14.9062 10.125M14.9062 10.6875C14.9808 10.6875 15.0524 10.6579 15.1051 10.6051C15.1579 10.5524 15.1875 10.4808 15.1875 10.4062C15.1875 10.3317 15.1579 10.2601 15.1051 10.2074C15.0524 10.1546 14.9808 10.125 14.9062 10.125M14.9062 13.5C14.8317 13.5 14.7601 13.4704 14.7074 13.4176C14.6546 13.3649 14.625 13.2933 14.625 13.2188C14.625 13.1442 14.6546 13.0726 14.7074 13.0199C14.7601 12.9671 14.8317 12.9375 14.9062 12.9375M14.9062 13.5C14.9808 13.5 15.0524 13.4704 15.1051 13.4176C15.1579 13.3649 15.1875 13.2933 15.1875 13.2188C15.1875 13.1442 15.1579 13.0726 15.1051 13.0199C15.0524 12.9671 14.9808 12.9375 14.9062 12.9375" stroke="black" stroke-width="1.125"/>
<path d="M5.625 4.5H10.125" stroke="black" stroke-width="1.125" stroke-linecap="round" stroke-linejoin="round"/>
</g>
<defs>
<clipPath id="clip0_459_1853">
<rect width="18" height="18" fill="white"/>
</clipPath>
</defs>
</svg>
