<svg width="20" height="20" viewBox="0 0 16 17" fill="none" xmlns="http://www.w3.org/2000/svg">
<path d="M6.22982 13.0209L4.94182 12.6756L5.46649 10.7163C4.6812 10.4265 3.95133 10.0044 3.30849 9.46825L1.87316 10.9043L0.93049 9.96158L2.36582 8.52558C1.55528 7.55471 1.01064 6.39006 0.785156 5.14558L2.09716 4.90625C2.34879 6.28879 3.07761 7.53919 4.15658 8.4395C5.23554 9.33981 6.59624 9.83294 8.00149 9.83294C9.40674 9.83294 10.7674 9.33981 11.8464 8.4395C12.9254 7.53919 13.6542 6.28879 13.9058 4.90625L15.2178 5.14492C14.9923 6.3897 14.4474 7.55459 13.6365 8.52558L15.0725 9.96158L14.1298 10.9043L12.6938 9.46825C12.051 10.0044 11.3211 10.4265 10.5358 10.7163L11.0612 12.6762L9.77316 13.0209L9.24782 11.0609C8.42281 11.2032 7.57951 11.2032 6.75449 11.0609L6.22982 13.0209Z" fill="#666666"/>
</svg>
