<svg width="18" height="18" viewBox="0 0 18 18" fill="none" xmlns="http://www.w3.org/2000/svg">
<path d="M9 4.38184C14.0029 4.38184 16.3125 8.99996 16.3125 8.99996C16.3125 8.99996 14.0029 13.6181 9 13.6181C3.99712 13.6181 1.6875 8.99996 1.6875 8.99996C1.6875 8.99996 3.99712 4.38184 9 4.38184Z" stroke="#666666" stroke-width="1.04513" stroke-linejoin="round"/>
<path d="M11.1825 9C11.1892 9.29963 11.136 9.59759 11.026 9.87636C10.9159 10.1551 10.7513 10.4091 10.5418 10.6234C10.3322 10.8377 10.082 11.008 9.80575 11.1242C9.5295 11.2404 9.23281 11.3003 8.93311 11.3003C8.6334 11.3003 8.33671 11.2404 8.06046 11.1242C7.78421 11.008 7.53397 10.8377 7.32443 10.6234C7.11488 10.4091 6.95026 10.1551 6.84023 9.87636C6.7302 9.59759 6.67697 9.29963 6.68367 9C6.68367 8.40326 6.92072 7.83097 7.34268 7.40901C7.76463 6.98705 8.33693 6.75 8.93367 6.75C9.53041 6.75 10.1027 6.98705 10.5247 7.40901C10.9466 7.83097 11.1837 8.40326 11.1837 9H11.1825Z" stroke="#666666" stroke-width="1.04513" stroke-linejoin="round"/>
</svg>
