<svg width="18" height="18" viewBox="0 0 18 18" fill="none" xmlns="http://www.w3.org/2000/svg">
<path d="M3 1.5H15C15.3978 1.5 15.7794 1.65804 16.0607 1.93934C16.342 2.22064 16.5 2.60218 16.5 3V10.5C16.5 10.8978 16.342 11.2794 16.0607 11.5607C15.7794 11.842 15.3978 12 15 12H11.25V15H13.5V16.5H9.75V12H8.25V16.5H4.5V15H6.75V12H3C2.60218 12 2.22064 11.842 1.93934 11.5607C1.65804 11.2794 1.5 10.8978 1.5 10.5V3C1.5 2.60218 1.65804 2.22064 1.93934 1.93934C2.22064 1.65804 2.60218 1.5 3 1.5ZM3 3V6H8.25V3H3ZM3 10.5H8.25V7.5H3V10.5ZM15 10.5V7.5H9.75V10.5H15ZM15 3H9.75V6H15V3Z" fill="black"/>
</svg>
