<svg width="18" height="18" viewBox="0 0 18 18" fill="none" xmlns="http://www.w3.org/2000/svg">
<path d="M14.25 12.75C15.1575 12.75 16.5 12.15 16.5 10.5C16.5 8.85 15.1575 8.25 14.25 8.25H12.75V6.75H14.25C15.9 6.75 16.5 5.4075 16.5 4.5C16.5 2.85 15.1575 2.25 14.25 2.25H12.75V1.5H12V2.25H6V1.5H5.25V2.25H1.5V3.75H5.25V5.25H3.75C2.8425 5.25 1.5 5.85 1.5 7.5C1.5 9.15 2.8425 9.75 3.75 9.75H5.25V11.25H3.75C2.8425 11.25 1.5 11.85 1.5 13.5C1.5 15.15 2.8425 15.75 3.75 15.75H5.25V16.5H6V15.75H12V16.5H12.75V15.75H16.5V14.25H12.75V12.75H14.25ZM14.25 9.75C14.5875 9.75 15 9.8925 15 10.5C15 11.1075 14.5875 11.25 14.25 11.25H12.75V9.75H14.25ZM12 8.25H6V6.75H12V8.25ZM14.25 3.75C14.5875 3.75 15 3.9 15 4.5C15 4.8375 14.8575 5.25 14.25 5.25H12.75V3.75H14.25ZM6 3.75H12V5.25H6V3.75ZM3.75 8.25C3.4125 8.25 3 8.1075 3 7.5C3 6.8925 3.4125 6.75 3.75 6.75H5.25V8.25H3.75ZM6 9.75H12V11.25H6V9.75ZM3.75 14.25C3.4125 14.25 3 14.1075 3 13.5C3 12.8925 3.4125 12.75 3.75 12.75H5.25V14.25H3.75ZM12 14.25H6V12.75H12V14.25Z" fill="black"/>
</svg>
