<svg width="18" height="18" viewBox="0 0 18 18" fill="none" xmlns="http://www.w3.org/2000/svg">
<path d="M4.79991 8.4H13.1999V7.2H4.79991V8.4ZM4.79991 9.59999V10.5C4.7999 10.9334 4.88526 11.3625 5.0511 11.7628C5.21694 12.1632 5.46001 12.527 5.76645 12.8335C6.07288 13.1399 6.43667 13.383 6.83704 13.5488C7.23742 13.7146 7.66654 13.8 8.0999 13.8H9.8999C10.3333 13.8 10.7624 13.7146 11.1628 13.5488C11.5631 13.383 11.9269 13.1399 12.2334 12.8335C12.5398 12.527 12.7829 12.1632 12.9487 11.7628C13.1145 11.3625 13.1999 10.9334 13.1999 10.5V9.59999H4.79991ZM4.19989 5.99999H13.7999C13.8787 5.99999 13.9567 6.01551 14.0295 6.04566C14.1023 6.07582 14.1685 6.12002 14.2242 6.17573C14.2799 6.23145 14.3241 6.29759 14.3542 6.37039C14.3844 6.44319 14.3999 6.52121 14.3999 6.6V10.5C14.3999 11.6935 13.9258 12.8381 13.0819 13.682C12.238 14.5259 11.0934 15 9.8999 15H8.0999C6.90642 15 5.76183 14.5259 4.91792 13.682C4.07401 12.8381 3.5999 11.6935 3.5999 10.5V6.6C3.5999 6.52121 3.61541 6.44319 3.64557 6.37039C3.67572 6.29759 3.71991 6.23145 3.77563 6.17573C3.83134 6.12002 3.89749 6.07582 3.97028 6.04566C4.04308 6.01551 4.1211 5.99999 4.19989 5.99999ZM8.9999 0.599991C9.07869 0.599991 9.15672 0.615511 9.22951 0.645664C9.30231 0.675818 9.36845 0.720015 9.42417 0.775731C9.47988 0.831448 9.52408 0.897593 9.55423 0.970389C9.58438 1.04319 9.5999 1.12121 9.59989 1.2V4.19999C9.59989 4.35912 9.53668 4.51173 9.42416 4.62425C9.31164 4.73677 9.15903 4.79999 8.9999 4.79999C8.84077 4.79999 8.68816 4.73677 8.57564 4.62425C8.46312 4.51173 8.39991 4.35912 8.39991 4.19999V1.2C8.3999 1.12121 8.41542 1.04319 8.44557 0.970389C8.47572 0.897593 8.51992 0.831448 8.57563 0.775731C8.63135 0.720015 8.69749 0.675818 8.77029 0.645664C8.84308 0.615511 8.92111 0.599991 8.9999 0.599991ZM6.59991 1.8C6.75903 1.8 6.91164 1.86321 7.02416 1.97573C7.13669 2.08825 7.1999 2.24086 7.1999 2.39999V4.19999C7.1999 4.35912 7.13668 4.51173 7.02416 4.62426C6.91164 4.73678 6.75903 4.79999 6.5999 4.79999C6.44077 4.79999 6.28815 4.73678 6.17563 4.62426C6.06311 4.51173 5.99989 4.35912 5.99989 4.19999V2.39999C5.99989 2.3212 6.01541 2.24317 6.04557 2.17038C6.07572 2.09758 6.11992 2.03144 6.17563 1.97572C6.23135 1.92001 6.2975 1.87581 6.37029 1.84566C6.44309 1.81551 6.52111 1.79999 6.59991 1.8ZM11.3999 1.8C11.4787 1.79999 11.5567 1.81551 11.6295 1.84566C11.7023 1.87581 11.7684 1.92001 11.8242 1.97572C11.8799 2.03144 11.9241 2.09758 11.9542 2.17038C11.9844 2.24317 11.9999 2.3212 11.9999 2.39999V4.19999C11.9999 4.35912 11.9367 4.51173 11.8242 4.62426C11.7116 4.73678 11.559 4.79999 11.3999 4.79999C11.2408 4.79999 11.0882 4.73678 10.9756 4.62426C10.8631 4.51173 10.7999 4.35912 10.7999 4.19999V2.39999C10.7999 2.24086 10.8631 2.08825 10.9756 1.97573C11.0882 1.86321 11.2408 1.8 11.3999 1.8ZM2.99991 16.2012H14.9999C15.159 16.2012 15.3116 16.2644 15.4242 16.3769C15.5367 16.4895 15.5999 16.6421 15.5999 16.8012C15.5999 16.9603 15.5367 17.1129 15.4242 17.2255C15.3116 17.338 15.159 17.4012 14.9999 17.4012H2.99991C2.84077 17.4012 2.68816 17.338 2.57564 17.2255C2.46312 17.1129 2.3999 16.9603 2.3999 16.8012C2.3999 16.6421 2.46312 16.4895 2.57564 16.3769C2.68816 16.2644 2.84077 16.2012 2.99991 16.2012Z" fill="black"/>
</svg>
