<svg width="381" height="348" viewBox="0 0 381 348" fill="none" xmlns="http://www.w3.org/2000/svg">
<path d="M195.413 3.72778H169.641V65.7949H195.413V3.72778Z" fill="white"/>
<path d="M169.641 14.2017V17.5805L195.413 26.674V14.2017H169.641Z" fill="#CCCCCC"/>
<path d="M199.016 0H166.046V14.2017H199.016V0Z" fill="white"/>
<path d="M326.111 78.0509L240.469 16.2793L154.827 78.0509V211.375H326.111V78.0509Z" fill="white"/>
<path d="M326.111 192.246H154.827V211.375H326.111V192.246Z" fill="#DC6648"/>
<path d="M233.25 110.223H182.764V203.839H233.25V110.223Z" fill="#77B4C7"/>
<path d="M345.384 108.552L240.469 29.2493L135.553 108.552L122.586 95.2882L240.469 3.30933L358.351 95.2882L345.384 108.552Z" fill="#DC6648"/>
<path d="M326.11 94.0556V95.6337L246.887 35.7435L154.828 105.332V94.0556L240.473 29.3208L326.11 94.0556Z" fill="#CCCCCC"/>
<path d="M304.187 110.223H258.231V174.029H304.187V110.223Z" fill="#77B4C7"/>
<path d="M255.043 107.035V177.216H307.375V107.035H255.043ZM300.999 113.411V126.131H261.419V113.411H300.999ZM261.419 170.84V132.508H300.999V170.84H261.419Z" fill="#DC6648"/>
<path d="M286.331 124.884C285.933 124.884 285.535 124.732 285.232 124.428C284.624 123.82 284.624 122.837 285.232 122.23L291.724 115.737C292.331 115.129 293.315 115.129 293.922 115.737C294.53 116.345 294.53 117.328 293.922 117.935L287.43 124.428C287.126 124.732 286.728 124.884 286.331 124.884H286.331Z" fill="white"/>
<path d="M265.05 148.308C264.652 148.308 264.254 148.156 263.951 147.852C263.343 147.245 263.343 146.261 263.951 145.654L273.935 135.669C274.543 135.061 275.527 135.061 276.134 135.669C276.741 136.276 276.741 137.26 276.134 137.867L266.149 147.852C265.845 148.156 265.448 148.308 265.05 148.308Z" fill="white"/>
<path d="M265.415 162.798C265.017 162.798 264.619 162.646 264.315 162.342C263.707 161.734 263.707 160.75 264.315 160.143L287.816 136.642C288.424 136.035 289.408 136.035 290.015 136.642C290.622 137.25 290.622 138.234 290.015 138.841L266.514 162.342C266.21 162.646 265.812 162.798 265.414 162.798H265.415Z" fill="white"/>
<path d="M196.074 130.841C195.676 130.841 195.278 130.689 194.974 130.385C194.366 129.777 194.366 128.793 194.974 128.186L204.959 118.202C205.566 117.594 206.55 117.594 207.157 118.202C207.765 118.809 207.765 119.793 207.157 120.4L197.173 130.385C196.869 130.689 196.471 130.841 196.073 130.841H196.074Z" fill="white"/>
<path d="M196.439 145.33C196.041 145.33 195.643 145.178 195.339 144.874C194.732 144.267 194.732 143.283 195.339 142.676L218.84 119.175C219.448 118.567 220.432 118.567 221.039 119.175C221.646 119.782 221.647 120.766 221.039 121.373L197.538 144.874C197.234 145.178 196.837 145.33 196.439 145.33Z" fill="white"/>
<path d="M179.576 107.035V207.028H236.438V107.035H179.576ZM230.062 113.411V147.6H185.952V113.411H230.062Z" fill="#DC6648"/>
<path d="M230.125 154.052H185.889V162.566H230.125V154.052Z" fill="white"/>
<path d="M230.125 168.77H186.456V197.463H230.125V168.77Z" fill="white"/>
<path d="M246.355 203.839H169.658V211.375H246.355V203.839Z" fill="#666666"/>
<path d="M374.877 193.541C373.027 197.554 359.257 204.65 350.779 212.331C350.718 212.392 350.704 212.514 350.578 212.589C346.813 214.879 343.501 216.776 341.477 217.886C333.618 222.204 305.217 240.348 297.161 245.992C289.11 251.64 245.993 271.306 234.073 278.665C222.158 286.022 212.706 298.261 200.918 298.397C189.12 298.523 144.472 271.775 107.565 266.965C99.664 265.935 89.3648 267.157 78.0582 269.715L64.696 194.361C71.8992 193.002 78.1287 191.405 82.372 189.546C102.661 180.661 120.482 176.408 135.512 179.008C150.537 181.602 169.754 196.122 180.47 197.194C191.19 198.271 208.164 200.397 219.198 199.255C223.465 198.81 232.144 198.875 241.221 198.383C254.03 197.69 259.304 199.479 260.625 199.947C266.414 201.99 270.783 206.2 272.563 211.46C279.064 208.949 285.546 206.181 291.953 203.128C329.127 185.401 349.037 179.71 360.01 179.696C363.71 179.687 367.363 180.637 370.506 182.586C373.864 184.68 377.307 188.267 374.876 193.541L374.877 193.541Z" fill="#BF7E45"/>
<path opacity="0.64" d="M352.635 202.083C352.949 204.326 352.817 206.71 352.831 208.944C352.836 209.487 352.831 210.031 352.822 210.574C352.114 211.149 351.43 211.74 350.78 212.33C349.983 213.126 342.462 217.346 341.478 217.884C333.619 222.202 305.218 240.347 297.162 245.99C289.111 251.639 245.994 271.305 234.074 278.663C222.159 286.021 212.707 298.259 200.919 298.395C189.121 298.522 144.472 271.774 107.566 266.964C99.6647 265.933 89.3655 267.156 78.0589 269.713L64.6968 194.359C65.0622 194.27 64.9078 194.307 65.2726 194.223C68.8084 206.203 77.8199 234.127 89.6274 251.283C89.7348 251.437 89.8473 251.597 89.9598 251.756C93.8611 257.161 99.8935 260.631 106.507 261.456C107.359 261.563 108.043 261.657 108.413 261.722C144.346 267.984 185.861 292.574 197.172 292.452C208.96 292.321 218.412 280.077 230.327 272.72C242.247 265.362 285.364 245.695 293.415 240.047C301.471 234.403 329.872 216.259 337.731 211.941C338.195 211.688 345.169 207.197 352.635 202.083Z" fill="#CE8B56"/>
<path opacity="0.45" d="M258.827 234.985C258.794 234.995 245.062 238.418 236.978 240.517C226.314 243.281 218.642 244.76 215.344 244.854C215.344 244.854 265.782 236.77 260.626 199.948C266.415 201.99 270.784 206.201 272.564 211.461C272.568 211.461 272.568 211.456 272.573 211.456C272.625 211.611 273.257 214.238 273.281 214.44C274.522 223.343 268.274 231.825 258.827 234.987V234.985Z" fill="#DC9964"/>
<path d="M259.679 237.535C259.617 237.558 234.778 244.264 224.028 247.488C213.979 250.502 187.405 246.341 181.191 246.153C168.132 245.749 148.056 242.781 156.156 242.709C181.089 242.487 212.507 244.939 215.346 244.854C218.643 244.758 226.316 243.282 236.979 240.516C245.061 238.42 258.797 234.994 258.826 234.985C268.276 231.821 274.522 223.341 273.283 214.436C273.257 214.238 272.614 211.565 272.577 211.45C272.62 211.438 272.663 211.422 272.702 211.4C273.066 212.019 273.34 212.641 273.524 213.257C276.385 223.013 270.496 233.917 259.681 237.534L259.679 237.535Z" fill="#DC9964"/>
<path d="M55.0562 244.308L0.000244141 253.929V197.205L45.2953 189.313L55.0562 244.308Z" fill="#32526E"/>
<path d="M63.6482 188.459L45.8171 191.622L55.1598 244.29L72.9908 241.127L63.6482 188.459Z" fill="white"/>
<path d="M72.9912 241.127L55.1602 244.29L64.5028 296.958L82.3338 293.795L72.9912 241.127Z" fill="#F2F2F2"/>
<path d="M64.7979 299.223L0.000244141 310.717V253.929L55.0562 244.308L64.7979 299.223Z" fill="#263E53"/>
<path d="M241.941 226.394V208.543C241.941 205.761 244.085 203.449 246.859 203.239L253.747 202.718C262.332 202.068 269.656 208.859 269.656 217.468C269.656 226.078 262.332 232.869 253.747 232.219L246.859 231.698C244.085 231.488 241.941 229.176 241.941 226.394Z" fill="#F6E2CA"/>
<path opacity="0.39" d="M241.992 227.131C241.959 226.892 241.941 226.646 241.941 226.394V208.542C245.084 208.542 247.634 212.704 247.634 217.837C247.634 222.943 245.112 227.086 241.993 227.131H241.992Z" fill="white"/>
<path d="M351.523 234.136C351.773 234.272 352.028 234.371 352.286 234.43C352.079 234.482 351.868 234.506 351.657 234.506C351.184 234.506 350.719 234.383 350.265 234.136C354.422 231.933 357.591 220.018 357.591 205.649C357.591 191.28 354.421 179.366 350.265 177.163C350.719 176.916 351.184 176.793 351.657 176.793C351.868 176.793 352.079 176.817 352.286 176.868C352.027 176.928 351.773 177.027 351.523 177.163C355.679 179.366 358.848 191.281 358.848 205.649C358.848 220.018 355.678 231.933 351.523 234.136Z" fill="#E6E6E6"/>
<path d="M360.375 205.649C360.375 220.885 356.808 233.369 352.286 234.43C352.027 234.371 351.773 234.272 351.522 234.136C355.678 231.933 358.847 220.018 358.847 205.649C358.847 191.281 355.678 179.366 351.522 177.163C351.773 177.027 352.028 176.928 352.286 176.868C356.807 177.93 360.375 190.414 360.375 205.649Z" fill="#CCCCCC"/>
<path d="M349.073 234.136C349.272 234.244 349.47 234.327 349.669 234.387C349.406 234.466 349.14 234.506 348.874 234.506C348.4 234.506 347.935 234.383 347.482 234.136C351.638 231.933 354.807 220.018 354.807 205.649C354.807 191.28 351.637 179.366 347.482 177.163C347.935 176.916 348.4 176.793 348.874 176.793C349.14 176.793 349.406 176.833 349.669 176.912C349.47 176.972 349.271 177.055 349.073 177.163C353.229 179.366 356.398 191.281 356.398 205.649C356.398 220.018 353.228 231.933 349.073 234.136Z" fill="#E6E6E6"/>
<path d="M357.591 205.65C357.591 220.699 354.112 233.059 349.669 234.387C349.47 234.327 349.272 234.244 349.073 234.136C353.229 231.933 356.398 220.018 356.398 205.65C356.398 191.281 353.229 179.366 349.073 177.163C349.272 177.055 349.471 176.972 349.669 176.912C354.112 178.241 357.591 190.601 357.591 205.65Z" fill="#CCCCCC"/>
<path d="M349.538 222.725C334.642 222.725 322.567 234.799 322.567 249.694C322.567 258.251 326.551 265.878 332.767 270.818C337.37 274.479 343.198 276.665 349.538 276.665C355.878 276.665 361.704 274.479 366.308 270.818C372.524 265.878 376.508 258.251 376.508 249.694C376.508 234.799 364.433 222.725 349.538 222.725ZM349.538 249.298C343.654 249.298 338.884 244.528 338.884 238.645C338.884 232.762 343.654 227.991 349.538 227.991C355.422 227.991 360.191 232.761 360.191 238.645C360.191 244.529 355.421 249.298 349.538 249.298Z" fill="#F2F2F2"/>
<path d="M349.538 222.725C334.642 222.725 322.567 234.799 322.567 249.694C322.567 258.251 326.551 265.878 332.767 270.818C337.37 274.479 343.198 276.665 349.538 276.665C355.878 276.665 361.704 274.479 366.308 270.818C372.524 265.878 376.508 258.251 376.508 249.694C376.508 234.799 364.433 222.725 349.538 222.725ZM349.538 249.298C343.654 249.298 338.884 244.528 338.884 238.645C338.884 232.762 343.654 227.991 349.538 227.991C355.422 227.991 360.191 232.761 360.191 238.645C360.191 244.529 355.421 249.298 349.538 249.298Z" fill="#E6E6E6"/>
<path d="M349.602 218.941C332.699 218.906 319.009 232.375 318.784 249.276C318.672 257.622 321.885 265.216 327.184 270.818C329.006 272.747 331.079 274.441 333.345 275.847C335.657 277.282 337.063 279.807 337.063 282.525V340.075L343.679 346.924C344.343 347.612 345.259 347.999 346.213 347.999C346.659 347.999 347.096 347.914 347.504 347.755C347.91 347.594 348.287 347.358 348.614 347.055L355.323 340.817V331.383L353.702 330.653V322.139L355.323 321.409V316.749L354.039 316.027V307.337L355.323 306.616V302.699L359.398 295.584V290.99L362.009 288.041V282.526C362.009 279.798 363.428 277.276 365.745 275.837C368.006 274.432 370.07 272.742 371.889 270.817C377.097 265.309 380.291 257.875 380.291 249.696C380.291 232.731 366.557 218.975 349.601 218.94L349.602 218.941ZM366.308 270.819C361.705 274.48 355.877 276.665 349.538 276.665C343.199 276.665 337.37 274.48 332.767 270.819C326.551 265.878 322.567 258.251 322.567 249.694C322.567 234.799 334.642 222.725 349.538 222.725C364.435 222.725 376.508 234.799 376.508 249.694C376.508 258.251 372.524 265.878 366.308 270.819Z" fill="#F2F2F2"/>
<path opacity="0.2" d="M346.16 279.436V347.998C345.657 347.991 345.165 347.875 344.718 347.665V292.67L345.69 279.869C345.713 279.58 345.937 279.436 346.16 279.436Z" fill="black"/>
<path opacity="0.08" d="M347.601 292.671V346.001L346.215 348C346.197 348 346.178 348 346.161 347.998V279.436C346.385 279.436 346.606 279.58 346.628 279.869L347.601 292.671Z" fill="black"/>
<path d="M349.539 227.99C343.654 227.99 338.885 232.76 338.885 238.645C338.885 244.53 343.654 249.299 349.539 249.299C355.423 249.299 360.192 244.528 360.192 238.645C360.192 232.762 355.422 227.99 349.539 227.99ZM349.539 246.591C345.149 246.591 341.59 243.034 341.59 238.644C341.59 234.254 345.149 230.696 349.539 230.696C353.929 230.696 357.485 234.254 357.485 238.644C357.485 243.034 353.929 246.591 349.539 246.591Z" fill="#F2F2F2"/>
<path opacity="0.2" d="M360.898 239.351C360.898 245.234 356.129 250.005 350.245 250.005C347.128 250.005 344.322 248.666 342.374 246.532C344.268 248.25 346.781 249.299 349.539 249.299C355.422 249.299 360.192 244.529 360.192 238.645C360.192 235.886 359.144 233.373 357.425 231.482C359.559 233.429 360.897 236.234 360.897 239.352L360.898 239.351Z" fill="black"/>
<path opacity="0.2" d="M368.957 230.98C364.108 226.304 357.513 223.43 350.244 223.43C335.347 223.43 323.273 235.504 323.273 250.4C323.273 257.661 326.143 264.254 330.81 269.103C325.727 264.198 322.567 257.314 322.567 249.694C322.567 234.798 334.642 222.723 349.539 222.723C357.166 222.723 364.054 225.891 368.957 230.98Z" fill="black"/>
<path opacity="0.2" d="M380.291 249.697C380.291 257.876 377.099 265.31 371.89 270.819C370.071 272.744 368.006 274.434 365.746 275.838C363.429 277.277 362.01 279.799 362.01 282.527V288.043L359.4 290.992V295.585L355.324 302.699V306.617L354.04 307.337V316.028L353.006 315.445V306.303L354.288 305.583V301.665L358.364 294.549V289.956L360.975 287.006V281.491C360.975 278.763 362.393 276.242 364.709 274.803C366.972 273.398 369.035 271.708 370.856 269.782C376.062 264.273 379.256 256.841 379.256 248.662C379.256 240.421 376.015 232.936 370.737 227.415C376.623 233.017 380.291 240.928 380.291 249.697Z" fill="black"/>
<path opacity="0.2" d="M355.323 316.749V321.41L353.702 322.139V330.654L352.666 330.186V321.103L354.287 320.375V316.166L355.323 316.749Z" fill="black"/>
<path opacity="0.2" d="M355.323 331.383V340.816L348.614 347.055C348.313 347.333 347.97 347.556 347.6 347.713V347.714C347.569 347.728 347.537 347.742 347.504 347.753C347.096 347.913 346.66 347.999 346.214 347.999L347.6 346L354.287 339.781V330.916L355.323 331.383Z" fill="black"/>
<path opacity="0.22" d="M351.171 230.868C350.642 230.757 350.097 230.697 349.536 230.697C348.359 230.697 347.246 230.951 346.243 231.413C345.889 230.685 345.579 229.834 345.304 228.867C345.332 228.851 345.36 228.839 345.388 228.827C345.36 228.839 345.332 228.851 345.304 228.863C344.855 227.268 344.521 225.367 344.314 223.231C344.195 222.03 344.115 220.758 344.083 219.417C345.861 219.103 347.69 218.94 349.56 218.94C349.568 220.26 349.611 221.521 349.699 222.722C349.834 224.675 350.069 226.456 350.395 228.024C350.61 229.074 350.868 230.024 351.17 230.868L351.171 230.868Z" fill="black"/>
<path d="M353.05 177.162C349.538 179.028 346.726 187.852 345.947 199.23C345.896 199.958 345.291 200.518 344.563 200.518C344.313 200.518 344.078 200.451 343.876 200.335C344.265 200.108 344.532 199.707 344.568 199.23C345.347 187.852 348.159 179.027 351.671 177.162C351.444 177.039 351.214 176.947 350.983 176.884C351.205 176.82 351.432 176.792 351.659 176.792C352.133 176.792 352.598 176.916 353.051 177.162H353.05Z" fill="#E6E6E6"/>
<path d="M349.474 234.439C349.275 234.483 349.076 234.506 348.873 234.506C344.75 234.506 341.297 225.018 340.391 212.271C340.335 211.468 340.972 210.78 341.779 210.78C341.994 210.78 342.196 210.828 342.376 210.916C341.875 211.154 341.544 211.683 341.584 212.272C342.447 224.406 345.617 233.585 349.475 234.44L349.474 234.439Z" fill="white"/>
<path d="M350.266 234.136C350.007 234.279 349.741 234.379 349.475 234.439C345.617 233.584 342.448 224.405 341.584 212.271C341.545 211.683 341.875 211.154 342.376 210.915C342.503 210.975 342.622 211.054 342.726 211.149C342.973 211.384 343.14 211.702 343.163 212.068C343.943 223.446 346.754 232.271 350.266 234.136V234.136Z" fill="#E6E6E6"/>
<path d="M352.349 234.418C352.118 234.478 351.888 234.506 351.657 234.506C347.469 234.506 343.969 224.711 343.134 211.662C343.027 210.015 342.661 208.397 342.08 206.854L341.492 205.299C340.613 202.976 340.263 200.486 340.47 198.013C341.48 185.784 344.861 176.792 348.873 176.792C349.108 176.792 349.338 176.823 349.569 176.879C345.858 177.834 342.801 186.488 341.85 198.013C341.643 200.486 341.993 202.976 342.872 205.299L343.46 206.854C344.041 208.397 344.407 210.015 344.514 211.662C345.302 223.987 348.471 233.412 352.348 234.418H352.349Z" fill="white"/>
<path d="M353.05 234.136C352.819 234.263 352.584 234.355 352.35 234.419C348.472 233.412 345.303 223.987 344.516 211.662C344.408 210.016 344.042 208.397 343.462 206.854L342.873 205.299C341.994 202.976 341.645 200.487 341.851 198.013C342.801 186.488 345.86 177.834 349.57 176.879C349.805 176.943 350.036 177.038 350.266 177.162C346.882 178.959 344.146 187.219 343.255 198.009C343.049 200.487 343.398 202.976 344.277 205.299L344.858 206.838C345.446 208.389 345.812 210.02 345.92 211.674C346.659 223.247 349.498 232.251 353.05 234.136Z" fill="#E6E6E6"/>
<path d="M352.179 176.844C352.011 176.948 351.833 177.059 351.669 177.163C348.158 179.028 345.346 187.853 344.567 199.231C344.531 199.708 344.265 200.11 343.874 200.336C343.453 200.097 343.171 199.64 343.171 199.127C343.171 199.091 343.171 199.06 343.175 199.028C344.03 186.99 347.159 177.854 350.977 176.884H350.981C351.204 176.821 351.43 176.793 351.657 176.793C351.832 176.793 352.008 176.809 352.179 176.844Z" fill="#F2F2F2"/>
<path d="M370.507 182.585C367.364 180.636 363.711 179.686 360.01 179.695C357.323 179.698 354.096 180.045 350.215 180.823C350.292 181.008 353.251 206.602 353.946 210.439C360.255 206.62 371.07 199.827 374.745 193.791C374.744 193.791 374.743 193.79 374.742 193.789C376.718 190.273 375.921 185.961 370.507 182.585Z" fill="#AA703C"/>
<path opacity="0.11" d="M350.67 205.475C350.727 206.333 350.117 207.089 349.278 207.204C348.98 207.248 348.7 207.21 348.439 207.108C348.013 206.937 347.664 206.581 347.499 206.136C347.823 208.291 348.891 211.03 349.907 212.994C348.98 213.56 348.077 214.094 347.225 214.596L346.488 213.286C345.077 210.725 344.251 207.877 344.085 204.966C343.996 203.422 343.939 201.922 343.927 200.473C343.952 200.447 343.971 200.422 343.99 200.39C344.162 200.473 344.359 200.517 344.562 200.517C345.293 200.517 345.897 199.958 345.948 199.227C346.475 191.441 347.963 184.85 349.977 180.871C351.338 180.591 352.609 180.369 353.816 180.191C351.052 184.399 349.825 193.964 350.67 205.475Z" fill="black"/>
<path opacity="0.45" d="M371.926 183.564C372.029 184.782 371.809 186.121 371.129 187.597C370.147 189.727 361.079 196.301 352.635 202.083C352.947 204.327 352.818 206.712 352.831 208.945C352.834 209.489 352.833 210.031 352.823 210.572C361.306 203.578 373.168 197.246 374.876 193.541C376.96 189.017 374.722 185.733 371.926 183.564Z" fill="#DC9964"/>
<path d="M354.69 201.021C356.239 198.935 366.476 194.21 369.837 193.608C371.441 193.32 373.451 193.082 374.746 193.792C370.95 200.03 359.696 207.06 350.783 212.331C351.245 208.267 353.395 202.76 354.69 201.021Z" fill="#F6E2CA"/>
<path opacity="0.7" d="M356.966 208.589C354.859 209.905 352.765 211.161 350.784 212.331C350.999 210.411 351.594 208.173 352.297 206.158C353.673 206.678 355.266 207.446 356.966 208.589Z" fill="white"/>
</svg>
