<svg width="24" height="24" viewBox="0 0 24 24" fill="none" xmlns="http://www.w3.org/2000/svg">
<path d="M14 9.84598C13 8.92298 10.333 8.61598 10.333 10.462C10.333 12.308 14 11.385 14 13.23C14 15.075 11 15.076 10 13.845M12 14.702V16M12 9.11298V7.99998M2 7.99998L11.732 3.13398C11.8152 3.09243 11.907 3.0708 12 3.0708C12.093 3.0708 12.1848 3.09243 12.268 3.13398L22 7.99998" stroke="currentColor" stroke-width="1.5" stroke-linecap="round" stroke-linejoin="round"/>
<path d="M20 11V19C20 19.5304 19.7893 20.0391 19.4142 20.4142C19.0391 20.7893 18.5304 21 18 21H6C5.46957 21 4.96086 20.7893 4.58579 20.4142C4.21071 20.0391 4 19.5304 4 19V11" stroke="currentColor" stroke-width="1.5" stroke-linecap="round" stroke-linejoin="round"/>
</svg>
