<svg width="24" height="24" viewBox="0 0 24 24" fill="none" xmlns="http://www.w3.org/2000/svg">
<path d="M14.5 18C14.453 19.093 14.315 19.79 13.902 20.326C13.7423 20.5341 13.5561 20.7203 13.348 20.88C12.538 21.5 11.363 21.5 9.013 21.5H8.512C5.678 21.5 4.261 21.5 3.38 20.621C2.5 19.743 2.5 18.328 2.5 15.5V8.5C2.5 5.672 2.5 4.257 3.38 3.379C4.26 2.501 5.678 2.5 8.512 2.5H9.012C11.363 2.5 12.538 2.5 13.348 3.12C13.5573 3.28067 13.742 3.46533 13.902 3.674C14.315 4.21 14.453 4.907 14.5 6M20.5 12H8.5M18 8.5C18 8.5 21.5 11.078 21.5 12C21.5 12.922 18 15.5 18 15.5" stroke="#EF4444" stroke-width="1.5" stroke-linecap="round" stroke-linejoin="round"/>
</svg>
