<svg width="20" height="20" viewBox="0 0 20 20" fill="none" xmlns="http://www.w3.org/2000/svg">
<path d="M6.92694 6.63217L9.26556 1.9509C9.33363 1.81542 9.43833 1.70147 9.56791 1.62183C9.6975 1.54219 9.84684 1.5 9.99919 1.5C10.1515 1.5 10.3009 1.54219 10.4305 1.62183C10.56 1.70147 10.6647 1.81542 10.7328 1.9509L13.0714 6.63217L18.2996 7.38732C18.4504 7.40811 18.5923 7.47062 18.709 7.56771C18.8258 7.66481 18.9128 7.79258 18.96 7.93645C19.0072 8.08031 19.0128 8.23448 18.976 8.38134C18.9393 8.5282 18.8618 8.66184 18.7524 8.76701L14.9699 12.4086L15.8628 17.5533C15.9772 18.2137 15.275 18.7165 14.6746 18.4051L9.99919 15.975L5.32285 18.4051C4.72334 18.7174 4.02122 18.2137 4.13554 17.5524L5.0285 12.4077L1.24602 8.76612C1.13709 8.66087 1.06005 8.52736 1.02365 8.38076C0.987252 8.23417 0.992961 8.08036 1.04013 7.93682C1.08729 7.79329 1.17402 7.66579 1.29046 7.56881C1.4069 7.47183 1.54837 7.40926 1.6988 7.38822L6.92694 6.63217Z" fill="#F59E0B" stroke="#F59E0B" stroke-width="1.5" stroke-linecap="round" stroke-linejoin="round"/>
</svg>
