<svg width="24" height="24" viewBox="0 0 24 24" fill="none" xmlns="http://www.w3.org/2000/svg">
<path d="M17 19.4999C17 17.8429 14.761 16.4999 12 16.4999C9.239 16.4999 7 17.8429 7 19.4999M21 16.4999C21 15.2699 19.766 14.2129 18 13.7499M3 16.4999C3 15.2699 4.234 14.2129 6 13.7499M18 9.73591C18.2963 9.474 18.5378 9.1561 18.7108 8.8005C18.8838 8.44491 18.9847 8.05862 19.0079 7.66386C19.031 7.26911 18.9759 6.87367 18.8456 6.5003C18.7154 6.12693 18.5127 5.78298 18.249 5.48825C17.9854 5.19351 17.6661 4.95381 17.3095 4.78291C16.9529 4.61201 16.5661 4.5133 16.1712 4.49245C15.7763 4.47161 15.3812 4.52903 15.0086 4.66142C14.636 4.79382 14.2932 4.99857 14 5.26391M6 9.73591C5.4123 9.20405 5.05896 8.46123 5.01717 7.6697C4.97538 6.87818 5.24853 6.10228 5.77696 5.5115C6.30539 4.92071 7.04614 4.56306 7.83741 4.51667C8.62868 4.47028 9.40616 4.73892 10 5.26391M12 13.4999C11.2044 13.4999 10.4413 13.1838 9.87868 12.6212C9.31607 12.0586 9 11.2956 9 10.4999C9 9.70426 9.31607 8.94119 9.87868 8.37858C10.4413 7.81598 11.2044 7.49991 12 7.49991C12.7956 7.49991 13.5587 7.81598 14.1213 8.37858C14.6839 8.94119 15 9.70426 15 10.4999C15 11.2956 14.6839 12.0586 14.1213 12.6212C13.5587 13.1838 12.7956 13.4999 12 13.4999Z" stroke="currentColor" stroke-width="1.5" stroke-linecap="round" stroke-linejoin="round"/>
</svg>
