<svg width="24" height="24" viewBox="0 0 17 16" fill="none" xmlns="http://www.w3.org/2000/svg">
<g clip-path="url(#clip0_1049_1699)">
<path d="M6.40006 2.97333C7.04676 2.76787 7.72152 2.6644 8.40006 2.66666C11.1881 2.66666 13.0854 4.33333 14.2167 5.80266C14.7834 6.54 15.0667 6.90733 15.0667 8C15.0667 9.09333 14.7834 9.46066 14.2167 10.1973C13.0854 11.6667 11.1881 13.3333 8.40006 13.3333C5.61206 13.3333 3.71473 11.6667 2.5834 10.1973C2.01673 9.46133 1.7334 9.09266 1.7334 8C1.7334 6.90666 2.01673 6.53933 2.5834 5.80266C2.92907 5.35121 3.31389 4.93114 3.7334 4.54733" stroke="#6E7BFB" stroke-width="1.5" stroke-linecap="round"/>
<path d="M10.3999 8C10.3999 8.53043 10.1892 9.03914 9.81412 9.41421C9.43904 9.78929 8.93034 10 8.3999 10C7.86947 10 7.36076 9.78929 6.98569 9.41421C6.61062 9.03914 6.3999 8.53043 6.3999 8C6.3999 7.46957 6.61062 6.96086 6.98569 6.58579C7.36076 6.21071 7.86947 6 8.3999 6C8.93034 6 9.43904 6.21071 9.81412 6.58579C10.1892 6.96086 10.3999 7.46957 10.3999 8Z" stroke="#6E7BFB" stroke-width="1.5"/>
</g>
<defs>
<clipPath id="clip0_1049_1699">
<rect width="16" height="16" fill="white" transform="translate(0.399902)"/>
</clipPath>
</defs>
</svg>
