<svg width="29" height="18" viewBox="0 0 29 18" fill="none" xmlns="http://www.w3.org/2000/svg">
<path d="M5.77734 17.2148H2.33203L0 0.304688H3.15234L4.67578 13.6523H4.76953L11.8359 0.304688H15.2344L5.77734 17.2148ZM13.6289 12.2812H16.5703C16.6484 12.8125 16.8555 13.2852 17.1914 13.6992C17.5352 14.1055 17.9844 14.4219 18.5391 14.6484C19.1016 14.875 19.7383 14.9883 20.4492 14.9883C21.1055 14.9883 21.6875 14.8945 22.1953 14.707C22.7031 14.5117 23.1016 14.2383 23.3906 13.8867C23.6875 13.5273 23.8359 13.1016 23.8359 12.6094C23.8359 12.0078 23.6328 11.5273 23.2266 11.168C22.8281 10.8008 22.1445 10.4648 21.1758 10.1602L19.7812 9.71484C18.4062 9.28516 17.3711 8.69922 16.6758 7.95703C15.9805 7.21484 15.6328 6.28125 15.6328 5.15625C15.6328 4.125 15.8984 3.22656 16.4297 2.46094C16.9688 1.6875 17.7109 1.08594 18.6562 0.65625C19.6016 0.21875 20.6836 0 21.9023 0C23.1289 0 24.2109 0.207031 25.1484 0.621094C26.0938 1.02734 26.832 1.60937 27.3633 2.36719C27.8945 3.125 28.168 4.02344 28.1836 5.0625H25.3008C25.2695 4.5625 25.1094 4.12109 24.8203 3.73828C24.5312 3.35547 24.1367 3.05859 23.6367 2.84766C23.1445 2.62891 22.5625 2.51953 21.8906 2.51953C21.2188 2.51953 20.6445 2.62891 20.168 2.84766C19.6992 3.05859 19.3398 3.33984 19.0898 3.69141C18.8477 4.03516 18.7266 4.41016 18.7266 4.81641C18.7266 5.35547 18.9258 5.8125 19.3242 6.1875C19.7305 6.55469 20.3867 6.87891 21.293 7.16016L22.6992 7.59375C24.1367 8.03906 25.2031 8.62109 25.8984 9.33984C26.6016 10.0586 26.9531 10.9766 26.9531 12.0938C26.9531 13.1016 26.6914 14.0156 26.168 14.8359C25.6445 15.6562 24.8906 16.3086 23.9062 16.793C22.9297 17.2773 21.75 17.5195 20.3672 17.5195C19.0938 17.5195 17.957 17.3125 16.957 16.8984C15.957 16.4766 15.1641 15.875 14.5781 15.0938C13.9922 14.3125 13.6758 13.375 13.6289 12.2812Z" fill="#DC6648"/>
</svg>
