<svg width="18" height="18" viewBox="0 0 18 18" fill="none" xmlns="http://www.w3.org/2000/svg">
<path d="M4.5 1.5C4.10218 1.5 3.72064 1.65804 3.43934 1.93934C3.15804 2.22064 3 2.60218 3 3V14.25C3 15.0825 3.6675 15.75 4.5 15.75V16.5H6V15.75H12V16.5H13.5V15.75C14.3325 15.75 15 15.0825 15 14.25V3C15 2.60218 14.842 2.22064 14.5607 1.93934C14.2794 1.65804 13.8978 1.5 13.5 1.5H4.5ZM4.5 3H8.25V14.25H4.5V3ZM9.75 3H13.5V14.25H9.75V3ZM6 7.5V9.75H7.5V7.5H6ZM10.5 7.5V9.75H12V7.5H10.5Z" fill="black"/>
</svg>
