<svg width="18" height="18" viewBox="0 0 18 18" fill="none" xmlns="http://www.w3.org/2000/svg">
<path d="M8.99987 15.3173C8.67687 15.3173 8.40387 15.2058 8.18087 14.9828C7.95787 14.7598 7.84637 14.4868 7.84637 14.1638C7.84637 13.8408 7.95787 13.5675 8.18087 13.344C8.40387 13.1205 8.67687 13.009 8.99987 13.0095C9.32287 13.01 9.59587 13.1215 9.81887 13.344C10.0419 13.5665 10.1534 13.8395 10.1534 14.163C10.1534 14.4865 10.0419 14.7598 9.81887 14.9828C9.59587 15.2058 9.32287 15.3173 8.99987 15.3173ZM4.76237 11.5125L3.99512 10.737C4.64612 10.086 5.39712 9.576 6.24812 9.207C7.09912 8.838 8.01712 8.65375 9.00212 8.65425C9.98712 8.65475 10.9044 8.83975 11.7539 9.20925C12.6034 9.57875 13.3536 10.0908 14.0046 10.7453L13.2374 11.5125C12.6874 10.9625 12.0499 10.5313 11.3249 10.2188C10.5999 9.90625 9.82487 9.75 8.99987 9.75C8.17487 9.75 7.39987 9.90625 6.67487 10.2188C5.94987 10.5313 5.31237 10.9625 4.76237 11.5125ZM1.57487 8.325L0.807617 7.55775C1.85212 6.50775 3.07087 5.67775 4.46387 5.06775C5.85687 4.45775 7.36887 4.1535 8.99987 4.155C10.6309 4.1565 12.1429 4.46125 13.5359 5.06925C14.9289 5.67725 16.1476 6.507 17.1921 7.5585L16.4249 8.325C15.4624 7.3625 14.3469 6.6095 13.0784 6.066C11.8099 5.5225 10.4504 5.2505 8.99987 5.25C7.54937 5.2495 6.19012 5.5215 4.92212 6.066C3.65412 6.6105 2.53837 7.3635 1.57487 8.325Z" fill="black"/>
</svg>
